# 3ds Max Wavefront OBJ Exporter v0.97b - (c)2007 guruware
# File Created: 01.11.2016 19:19:41

mtllib Body_Front.mtl

#
# object Line008
#

v  -3.492393 -0.227947 24.801010
v  -3.492393 3.104962 24.647184
v  -3.492394 8.899097 26.185450
v  -3.492394 26.230228 24.185705
v  -3.492393 32.485844 19.211977
v  -3.492388 32.383293 -18.321712
v  -3.492386 26.230228 -23.654367
v  -3.492385 8.950374 -25.397736
v  -3.492385 8.580532 -25.327925
v  -3.492385 8.019641 -25.172005
v  -3.492385 7.299541 -24.944330
v  -3.492385 6.452075 -24.659250
v  -3.492385 5.509082 -24.331120
v  -3.492385 4.502408 -23.974283
v  -3.492385 3.463891 -23.603092
v  -3.492385 -0.125396 -23.859470
v  -3.492388 -0.165487 -4.835989
v  -3.492389 23.922827 -4.733680
v  -3.492391 23.871557 4.803570
v  -3.492390 -0.185802 4.803550
# 20 vertices

vn 1.000000 0.000000 0.000000
# 1 vertex normals

vt 1.233541 0.204778 0.915834
vt 1.244888 0.228985 0.915834
vt 1.255796 0.252451 0.915834
vt 1.265826 0.274432 0.915834
vt 1.274541 0.294187 0.915834
vt 1.281500 0.310972 0.915834
vt 1.286266 0.324047 0.915834
vt 1.288400 0.332668 0.915834
vt 1.072100 0.878889 0.915834
vt 1.235109 0.735461 0.915834
vt 0.659866 0.120177 0.915833
vt -0.227272 0.735461 0.915833
vt -0.288401 0.331472 0.915833
vt -0.241379 0.196411 0.915833
vt 0.365204 0.119703 0.915833
vt -0.246081 0.118721 0.915833
vt 0.365203 0.680480 0.915833
vt -0.075235 0.881279 0.915833
vt 0.656739 0.681675 0.915833
vt 1.241379 0.121111 0.915834
# 20 texture coords

g Line008
usemtl 06___Default
s 1
f -6/-20/-1 -7/-19/-1 -8/-18/-1 -9/-17/-1 
f -9/-17/-1 -10/-16/-1 -11/-15/-1 -6/-20/-1 
f -11/-15/-1 -12/-14/-1 -13/-13/-1 -15/-12/-1 
f -13/-13/-1 -14/-11/-1 -15/-12/-1 
f -6/-20/-1 -11/-15/-1 -15/-12/-1 -4/-10/-1 
f -17/-9/-1 -18/-8/-1 -19/-7/-1 -1/-6/-1 
f -19/-7/-1 -20/-5/-1 -1/-6/-1 
f -17/-9/-1 -1/-6/-1 -2/-4/-1 -16/-3/-1 
f -16/-3/-1 -2/-4/-1 -3/-2/-1 -15/-12/-1 
f -15/-12/-1 -3/-2/-1 -4/-10/-1 
f -6/-20/-1 -4/-10/-1 -5/-1/-1 
# 7 polygons - 4 triangles

#
# object Plane010
#

v  -4.890570 -0.115105 -23.308300
v  -4.890572 32.069622 -18.161303
v  -4.890570 3.253386 -23.380142
v  -4.890570 8.773455 -24.884296
v  -4.890571 26.010563 -23.063423
v  -4.880573 -0.115105 -4.650287
v  -4.890573 5.937453 -4.660185
v  -4.890574 23.846380 -4.645344
v  -0.036386 23.837688 -4.620286
v  -0.036386 -0.115105 -4.650287
v  -4.734387 -0.115105 -4.710287
v  -4.794388 23.807688 -4.650287
v  -3.972350 -0.115103 -4.650287
v  -3.993564 23.837688 -4.629074
v  -4.734387 -0.115105 -13.952165
v  -4.032350 -0.115103 -13.952165
v  -4.032351 23.807688 -13.952165
v  -4.734388 23.807688 -13.952165
v  -4.794387 -0.115105 -4.650287
v  -4.734388 23.807688 -4.710287
v  -4.674388 23.837688 -4.650287
v  -4.734388 23.837688 -4.590287
v  -4.032350 -0.115103 -4.710287
v  -4.032351 23.837688 -4.590287
v  -4.092351 23.837688 -4.650287
v  -4.053564 23.837688 -4.689074
v  -4.890573 -0.115105 -4.660287
v  -4.880573 5.938872 -4.650287
v  -4.890573 5.940260 -4.660190
v  -4.890574 23.838860 -4.660218
v  -4.890574 23.846380 -4.645344
v  -0.036386 23.807688 -4.650287
v  -4.773175 23.837688 -4.629074
v  -3.972351 23.807688 -4.650287
v  -4.062351 23.837688 -13.952165
v  -4.704388 23.837688 -13.952165
v  -4.713175 23.837688 -4.689074
v  -4.032351 23.807688 -4.710287
v  -4.890574 23.838860 -4.660218
v  -4.880574 23.807688 -4.650287
v  -4.880636 23.837688 -4.620287
v  -4.890575 32.069626 -0.013369
v  -4.890575 31.992365 -0.013369
v  -0.036389 23.837688 -0.013368
v  -4.889090 23.837688 -0.013369
v  -4.890577 32.069622 19.368204
v  -4.890579 26.010563 24.270325
v  -4.890575 23.838860 4.633480
v  -4.890575 23.846380 4.618607
v  -4.890578 3.253386 24.587044
v  -4.890578 -0.115105 24.515205
v  -4.890574 -0.115105 4.633549
v  -4.890575 5.937453 4.633448
v  -4.890578 8.773455 26.091198
v  -4.890575 5.940260 4.633453
v  -4.890575 23.847675 -0.013369
v  -4.880638 23.837688 4.593550
v  -4.773176 23.837688 4.602337
v  -4.734389 23.837688 4.563549
v  -4.889090 23.837688 -0.013369
v  -4.880576 23.807688 4.623550
v  -4.880575 5.938872 4.623550
v  -4.880575 -0.115105 4.623550
v  -4.794388 -0.115105 4.623550
v  -4.794389 23.807688 4.623550
v  -4.674389 23.837688 4.623550
v  -4.092352 23.837688 4.623550
v  -4.032352 23.837688 4.563549
v  -4.886291 23.837688 -0.013369
v  -4.734391 -0.115105 13.925426
v  -4.032354 -0.115103 13.925428
v  -4.032355 23.807688 13.925428
v  -4.062356 23.837688 13.925428
v  -4.704392 23.837688 13.925426
v  -4.734392 23.807688 13.925426
v  -3.993566 23.837688 4.602337
v  -0.036388 23.837688 4.593550
v  -3.972352 -0.115103 4.623550
v  -0.036387 -0.115105 4.623550
v  -0.036388 23.807688 4.623550
v  -3.972353 23.807688 4.623550
v  -4.734388 -0.115105 4.683550
v  -4.032351 -0.115103 4.683550
v  -4.032352 23.807688 4.683550
v  -4.053566 23.837688 4.662336
v  -4.713176 23.837688 4.662336
v  -4.734389 23.807688 4.683550
v  -4.890575 23.838860 4.633480
v  -4.890575 23.846380 4.618607
# 89 vertices

vn -1.000000 -0.000000 -0.000000
vn -1.000000 0.000000 -0.000000
vn 0.000000 -1.000000 -0.000000
vn -0.000000 -1.000000 -0.000000
vn -0.000000 0.000000 1.000000
vn 0.000001 0.000000 1.000000
vn 0.000000 -1.000000 0.000000
vn -0.000003 1.000000 0.000000
vn -0.000003 1.000000 -0.000000
vn -0.000000 -1.000000 0.000000
vn 1.000000 0.000000 0.000000
vn 0.707106 0.000000 0.707107
vn -0.707107 -0.000000 0.707107
vn -0.704503 0.000562 0.709701
vn -0.704665 0.000074 0.709541
vn -0.703891 0.000566 0.710308
vn -0.936676 -0.255668 0.239316
vn -0.909686 -0.382606 0.161503
vn -0.705312 -0.000006 0.708896
vn -0.704163 0.000001 0.710038
vn -0.704163 0.000001 0.710039
vn -0.854566 -0.514728 0.069080
vn -0.795402 -0.606083 -0.000000
vn -0.936012 -0.270652 0.225009
vn 0.034220 -0.655782 0.754175
vn -0.000846 -0.649387 0.760458
vn -0.760543 -0.649287 0.000361
vn 0.760543 -0.649287 0.000361
vn 0.500002 -0.707103 0.500003
vn -0.500002 -0.707103 0.500003
vn 0.000000 0.000000 -1.000000
vn 0.000003 0.000000 -1.000000
vn 0.707104 0.000000 -0.707110
vn -0.707104 -0.000000 -0.707110
vn -0.704455 0.000675 -0.709748
vn -0.703857 0.000679 -0.710341
vn -0.704618 0.000089 -0.709587
vn -0.909684 -0.382609 -0.161507
vn -0.936673 -0.255672 -0.239322
vn -0.705253 -0.000006 -0.708956
vn -0.704129 0.000001 -0.710072
vn -0.854565 -0.514730 -0.069080
vn -0.936010 -0.270657 -0.225012
vn 0.034222 -0.655792 -0.754165
vn -0.000846 -0.649394 -0.760452
vn -0.760543 -0.649287 -0.000361
vn 0.760543 -0.649287 -0.000361
vn 0.499998 -0.707107 -0.500002
vn -0.499997 -0.707107 -0.500002
# 49 vertex normals

vt 0.662812 0.909386 0.000000
vt 0.928561 0.878029 0.000000
vt 0.928773 0.878144 0.000000
vt 0.733598 0.996883 0.000000
vt 0.995659 0.996888 0.000000
vt 0.995659 0.995773 0.000000
vt 0.659279 0.532123 0.000000
vt 0.928562 0.532125 0.000000
vt 0.928562 0.619526 0.000000
vt 0.658241 0.580766 0.000000
vt 0.928562 0.619567 0.000000
vt 0.636520 0.660477 0.000000
vt 0.995659 0.878162 0.000000
vt 0.532950 0.692785 0.000000
vt 0.534692 0.692639 0.000000
vt 0.535322 0.693267 0.000000
vt 0.532926 0.767439 0.000000
vt 0.532908 0.767439 0.000000
vt 0.928765 0.619546 0.000000
vt 0.928765 0.532125 0.000000
vt 0.930010 0.532124 0.000000
vt 0.930009 0.877576 0.000000
vt 0.928765 0.877575 0.000000
vt 0.536292 0.692290 0.000000
vt 0.545723 0.692286 0.000000
vt 0.546699 0.693254 0.000000
vt 0.533031 0.767441 0.000000
vt 0.412606 0.725410 0.000000
vt 0.518169 0.725410 0.000000
vt 0.518301 0.725542 0.000000
vt 0.412606 0.728508 0.000000
vt 0.518168 0.728508 0.000000
vt 0.518301 0.728375 0.000000
vt 0.547326 0.692625 0.000000
vt 0.611451 0.692673 0.000000
vt 0.611561 0.767327 0.000000
vt 0.412606 0.684254 0.000000
vt 0.412606 0.666886 0.000000
vt 0.518169 0.666886 0.000000
vt 0.518169 0.684254 0.000000
vt 0.562087 0.689504 0.000000
vt 0.550712 0.689448 0.000000
vt 0.551445 0.539703 0.000000
vt 0.562821 0.539758 0.000000
vt 0.412606 0.684628 0.000000
vt 0.518169 0.684629 0.000000
vt 0.535662 0.691659 0.000000
vt 0.535895 0.541550 0.000000
vt 0.546300 0.541555 0.000000
vt 0.546350 0.691660 0.000000
vt 0.518173 0.769289 0.000000
vt 0.412607 0.769289 0.000000
vt 0.563055 0.690481 0.000000
vt 0.549735 0.690416 0.000000
vt 0.931235 0.877576 0.000000
vt 0.931235 0.532124 0.000000
vt 0.928564 0.878027 0.000000
vt 0.928770 0.878151 0.000000
vt 0.532764 0.767439 0.000000
vt 0.532748 0.692380 0.000000
vt 0.929161 0.878039 0.000000
vt 0.928763 0.878187 0.000000
vt 0.930317 0.878104 0.000000
vt 0.518331 0.684348 0.000000
vt 0.518356 0.666886 0.000000
vt 0.546941 0.691317 0.000000
vt 0.546987 0.541555 0.000000
vt 0.518338 0.769382 0.000000
vt 0.518351 0.728508 0.000000
vt 0.930010 0.878189 0.000000
vt 0.931235 0.878189 0.000000
vt 0.518356 0.684629 0.000000
vt 0.518357 0.684254 0.000000
# 73 texture coords

g Plane010
usemtl 01___Default
s 1
f -85/-73/-49 -60/-72/-49 -82/-71/-49 -88/-70/-48 
f -48/-69/-48 -88/-70/-48 -82/-71/-49 -47/-68/-49 
f -89/-67/-49 -63/-66/-49 -83/-65/-49 -87/-64/-49 
f -87/-64/-49 -83/-65/-49 -61/-63/-49 -86/-62/-49 
f -86/-62/-49 -61/-63/-49 -60/-72/-49 -85/-73/-49 
f -82/-71/-49 -34/-61/-49 -47/-68/-49 
s 2
f -49/-60/-47 -57/-59/-47 -68/-58/-46 -45/-57/-46 
f -49/-60/-47 -45/-57/-46 -21/-56/-46 
f -62/-55/-45 -84/-54/-45 -71/-53/-45 -78/-52/-45 
f -50/-51/-45 -62/-55/-45 -78/-52/-45 
f -69/-50/-46 -65/-49/-46 -66/-48/-46 -45/-57/-46 
f -66/-48/-46 -21/-47/-46 -45/-57/-46 
f -68/-58/-46 -69/-50/-46 -45/-57/-46 
s 1
f -74/-46/-44 -73/-45/-44 -55/-44/-44 -75/-43/-44 
f -72/-42/-44 -75/-43/-44 -55/-44/-44 -54/-41/-44 
s 2
f -76/-40/-47 -81/-39/-47 -46/-38/-43 -21/-47/-46 
f -66/-48/-46 -76/-40/-47 -21/-47/-46 
s 1
f -77/-37/-45 -80/-36/-45 -58/-35/-45 -56/-34/-45 
s 4
f -79/-33/-42 -67/-32/-42 -74/-31/-41 -75/-30/-41 
s 2
f -67/-29/-49 -52/-28/-49 -73/-45/-49 -74/-46/-49 
f -65/-49/-46 -69/-50/-46 -53/-27/-40 -54/-26/-40 
f -65/-49/-46 -54/-26/-40 -55/-25/-40 -64/-24/-40 
f -70/-23/-39 -79/-22/-39 -75/-43/-39 -72/-42/-39 
f -57/-59/-47 -53/-27/-40 -69/-50/-46 -68/-58/-46 
f -76/-40/-47 -66/-48/-46 -65/-49/-46 -64/-24/-40 
s 4
f -79/-33/-42 -71/-21/-42 -77/-20/-42 -67/-32/-42 
s 1
f -70/-19/-38 -78/-52/-38 -71/-53/-38 -79/-18/-38 
s 8
f -67/-29/-37 -77/-37/-37 -56/-34/-37 -52/-28/-37 
s 4
f -83/-65/-36 -62/-55/-35 -61/-63/-34 
s 1
f -60/-72/-49 -51/-17/-33 -59/-16/-32 -82/-71/-49 
s 4
f -62/-55/-35 -83/-65/-36 -63/-66/-31 -84/-54/-31 
f -51/-17/-30 -60/-72/-29 -61/-63/-34 -62/-55/-35 
f -50/-51/-30 -51/-17/-30 -62/-55/-35 
s 1
f -49/-60/-28 -21/-56/-27 -34/-15/-49 -59/-14/-32 
f -82/-14/-49 -59/-14/-32 -34/-15/-49 
f -59/-16/-32 -51/-17/-33 -50/-51/-26 -49/-13/-28 
s 8
f -49/-12/-25 -50/-51/-25 -78/-52/-25 -57/-11/-25 
s 4
f -76/-10/-24 -56/-34/-24 -58/-35/-24 -81/-9/-24 
f -52/-8/-23 -64/-24/-23 -55/-25/-23 -73/-7/-23 
f -53/-6/-22 -70/-23/-22 -72/-42/-22 -54/-5/-22 
s 16
f -57/-4/-21 -78/-52/-21 -70/-19/-21 -53/-3/-21 
f -64/-2/-20 -52/-28/-20 -56/-34/-20 -76/-1/-20 
s 1
f -48/-69/-48 -47/-68/-49 -41/-71/-49 -44/-70/-48 
f -43/-73/-49 -44/-70/-48 -41/-71/-49 -42/-72/-49 
f -39/-67/-49 -40/-64/-49 -37/-65/-49 -38/-66/-49 
f -40/-64/-49 -36/-62/-49 -35/-63/-49 -37/-65/-49 
f -36/-62/-49 -43/-73/-49 -42/-72/-49 -35/-63/-49 
f -41/-71/-49 -47/-68/-49 -34/-61/-49 
s 2
f -33/-60/-43 -21/-56/-46 -30/-57/-40 -31/-58/-40 
f -33/-60/-43 -31/-58/-40 -32/-59/-43 
f -26/-53/-19 -27/-54/-19 -28/-55/-19 -25/-52/-19 
f -29/-51/-19 -25/-52/-19 -28/-55/-19 
f -30/-57/-40 -21/-47/-46 -22/-48/-40 -24/-50/-40 
f -22/-48/-40 -23/-49/-40 -24/-50/-40 
f -31/-58/-40 -30/-57/-40 -24/-50/-40 
s 1
f -15/-42/-18 -16/-41/-18 -17/-44/-18 -20/-43/-18 
f -19/-46/-18 -20/-43/-18 -17/-44/-18 -18/-45/-18 
s 2
f -46/-38/-43 -13/-39/-43 -14/-40/-43 -21/-47/-46 
f -22/-48/-40 -21/-47/-46 -14/-40/-43 
s 1
f -12/-37/-19 -9/-34/-19 -10/-35/-19 -11/-36/-19 
s 4
f -8/-33/-41 -20/-30/-41 -19/-31/-41 -7/-32/-41 
s 2
f -7/-29/-49 -19/-46/-49 -18/-45/-49 -6/-28/-49 
f -4/-27/-46 -24/-50/-40 -23/-49/-40 -16/-26/-46 
f -17/-25/-46 -16/-26/-46 -23/-49/-40 -5/-24/-46 
f -3/-23/-39 -15/-42/-39 -20/-43/-39 -8/-22/-39 
f -32/-59/-43 -31/-58/-40 -24/-50/-40 -4/-27/-46 
f -14/-40/-43 -5/-24/-46 -23/-49/-40 -22/-48/-40 
s 4
f -8/-33/-41 -7/-32/-41 -12/-20/-41 -26/-21/-41 
s 1
f -3/-19/-17 -8/-18/-17 -26/-53/-17 -25/-52/-17 
s 8
f -7/-29/-16 -6/-28/-16 -9/-34/-16 -12/-37/-16 
s 4
f -37/-65/-15 -35/-63/-14 -28/-55/-13 
s 1
f -42/-72/-49 -41/-71/-49 -1/-16/-12 -2/-17/-11 
s 4
f -28/-55/-13 -27/-54/-10 -38/-66/-10 -37/-65/-15 
f -35/-63/-14 -42/-72/-9 -2/-17/-9 -28/-55/-13 
f -29/-51/-9 -28/-55/-13 -2/-17/-9 
s 1
f -34/-15/-49 -21/-56/-27 -33/-60/-8 -1/-14/-12 
f -41/-14/-49 -34/-15/-49 -1/-14/-12 
f -1/-16/-12 -33/-13/-8 -29/-51/-7 -2/-17/-11 
s 8
f -33/-12/-6 -32/-11/-6 -25/-52/-6 -29/-51/-6 
s 4
f -14/-10/-5 -13/-9/-5 -10/-35/-5 -9/-34/-5 
f -6/-8/-4 -18/-7/-4 -17/-25/-4 -5/-24/-4 
f -4/-6/-3 -16/-5/-3 -15/-42/-3 -3/-23/-3 
s 16
f -32/-4/-2 -4/-3/-2 -3/-19/-2 -25/-52/-2 
f -5/-2/-1 -14/-1/-1 -9/-34/-1 -6/-28/-1 
# 66 polygons - 18 triangles

